<?xml version="1.0" ?><svg viewBox="0 0 64 64" xmlns="http://www.w3.org/2000/svg"><defs><style>.cls-1{fill:#fff;}.cls-2{fill:#1394f6;}.cls-3{fill:#a4a4ac;}</style></defs><title/><g data-name="filled outline" id="filled_outline"><rect class="cls-1" height="50" rx="5" transform="translate(66.5 2.5) rotate(90)" width="41" x="11.5" y="9.5"/><path class="cls-2" d="M7,24V19a5,5,0,0,1,5-5H52a5,5,0,0,1,5,5v5Z"/><path class="cls-1" d="M20,19a2,2,0,0,1-2-2V11a2,2,0,0,1,4,0v6A2,2,0,0,1,20,19Z"/><path class="cls-1" d="M44,19a2,2,0,0,1-2-2V11a2,2,0,0,1,4,0v6A2,2,0,0,1,44,19Z"/><rect class="cls-3" height="5" transform="translate(61 8) rotate(90)" width="5" x="24" y="32"/><rect class="cls-3" height="5" transform="translate(72 -3) rotate(90)" width="5" x="35" y="32"/><rect class="cls-3" height="5" transform="translate(83 -14) rotate(90)" width="5" x="46" y="32"/><rect class="cls-3" height="5" transform="translate(83 8) rotate(90)" width="5" x="35" y="43"/><rect class="cls-3" height="5" transform="translate(61 30) rotate(90)" width="5" x="13" y="43"/><rect class="cls-3" height="5" transform="translate(72 19) rotate(90)" width="5" x="24" y="43"/><path d="M28,33v3H25V33h3m2-2H23v7h7V31Zm9,2v3H36V33h3m2-2H34v7h7V31Zm9,2v3H47V33h3m2-2H45v7h7V31ZM39,44v3H36V44h3m2-2H34v7h7V42ZM17,44v3H14V44h3m2-2H12v7h7V42Zm9,2v3H25V44h3m2-2H23v7h7V42ZM52,13H47V11a3,3,0,0,0-6,0v2H23V11a3,3,0,0,0-6,0v2H12a6,6,0,0,0-6,6V50a6,6,0,0,0,6,6H52a6,6,0,0,0,6-6V19A6,6,0,0,0,52,13Zm-9-2a1,1,0,0,1,2,0v6a1,1,0,0,1-2,0ZM19,11a1,1,0,0,1,2,0v6a1,1,0,0,1-2,0Zm-7,4h5v2a3,3,0,0,0,6,0V15H41v2a3,3,0,0,0,6,0V15h5a4,4,0,0,1,4,4v5H8V19A4,4,0,0,1,12,15ZM52,54H12a4,4,0,0,1-4-4V26H56V50A4,4,0,0,1,52,54Z"/></g></svg>