<?xml version="1.0" ?><svg viewBox="0 0 64 64" xmlns="http://www.w3.org/2000/svg"><defs><style>.cls-1{fill:#fff;}.cls-2{fill:#FFA500;}.cls-3{fill:#a4a4ac;}</style></defs><title/><g data-name="filled outline" id="filled_outline"><rect class="cls-1" height="50" rx="5" transform="translate(66.5 2.5) rotate(90)" width="41" x="11.5" y="9.5"/><path class="cls-2" d="M7,24V19a5,5,0,0,1,5-5H52a5,5,0,0,1,5,5v5Z"/><path class="cls-1" d="M20,19a2,2,0,0,1-2-2V11a2,2,0,0,1,4,0v6A2,2,0,0,1,20,19Z"/><path class="cls-1" d="M44,19a2,2,0,0,1-2-2V11a2,2,0,0,1,4,0v6A2,2,0,0,1,44,19Z"/><rect class="cls-3" height="5" transform="translate(61 8) rotate(90)" width="5" x="24" y="32"/><rect class="cls-3" height="5" transform="translate(72 -3) rotate(90)" width="5" x="35" y="32"/><rect class="cls-3" height="5" transform="translate(83 -14) rotate(90)" width="5" x="46" y="32"/><rect class="cls-3" height="5" transform="translate(83 8) rotate(90)" width="5" x="35" y="43"/><rect class="cls-3" height="5" transform="translate(61 30) rotate(90)" width="5" x="13" y="43"/><rect class="cls-3" height="5" transform="translate(72 19) rotate(90)" width="5" x="24" y="43"/><circle class="cls-2" cx="53" cy="51" r="8"/><path d="M58,52H48V50H58ZM34,42h7v7H34Zm2,5h3V44H36Zm5-9H34V31h7Zm-2-5H36v3h3ZM12,49V42h7v7Zm2-2h3V44H14ZM45,31h7v7H45Zm2,5h3V33H47ZM62,51a9,9,0,0,1-16.48,5H12a6,6,0,0,1-6-6V19a6,6,0,0,1,6-6h5V11a3,3,0,0,1,6,0v2H41V11a3,3,0,0,1,6,0v2h5a6,6,0,0,1,6,6V43.52A9,9,0,0,1,62,51Zm-5-8.07.09,0ZM43,17a1,1,0,0,0,2,0V11a1,1,0,0,0-2,0ZM19,17a1,1,0,0,0,2,0V11a1,1,0,0,0-2,0ZM8,24H56V19a4,4,0,0,0-4-4H47v2a3,3,0,0,1-6,0V15H23v2a3,3,0,0,1-6,0V15H12a4,4,0,0,0-4,4ZM44.52,54h0A9,9,0,0,1,56,42.52h0V26H8V50a4,4,0,0,0,4,4ZM45,55.07a.93.93,0,0,0,0-.1A.93.93,0,0,1,45,55.07ZM60,51a7,7,0,1,0-7,7A7,7,0,0,0,60,51ZM30,38H23V31h7Zm-2-5H25v3h3Zm-5,9h7v7H23Zm2,5h3V44H25Z"/></g></svg>